<?xml version="1.0" encoding="utf-8"?>
<!-- Generated by IcoMoon.io -->
<!DOCTYPE svg PUBLIC "-//W3C//DTD SVG 1.1//EN" "http://www.w3.org/Graphics/SVG/1.1/DTD/svg11.dtd">

<svg version="1.1" xmlns="http://www.w3.org/2000/svg" xmlns:xlink="http://www.w3.org/1999/xlink" width="128" height="32" viewBox="0 0 128 32">
<defs>
<g id="icon-map">
	<path class="path1" d="M16 0c-5.523 0-10 4.477-10 10 0 10 10 22 10 22s10-12 10-22c0-5.523-4.477-10-10-10zM16 16c-3.314 0-6-2.686-6-6s2.686-6 6-6 6 2.686 6 6-2.686 6-6 6z" fill="undefined"></path>
</g>
<g id="icon-pencil">
	<path class="path1" d="M12 20l4-2 14-14-2-2-14 14-2 4zM9.041 27.097c-0.989-2.085-2.052-3.149-4.137-4.137l3.097-8.525 4-2.435 12-12h-6l-12 12-6 20 20-6 12-12v-6l-12 12-2.435 4z" fill="undefined"></path>
</g>
<g id="icon-menu">
	<path class="path1" d="M2 6h28v6h-28zM2 14h28v6h-28zM2 22h28v6h-28z" fill="undefined"></path>
</g>
</defs>

<g fill="#000000">
	<use xlink:href="#icon-map" transform="translate(0 0)"></use>
	<use xlink:href="#icon-pencil" transform="translate(48 0)"></use>
	<use xlink:href="#icon-menu" transform="translate(96 0)"></use>
</g>

</svg>
